<?xml version="1.0" encoding="UTF-8"?>
<svg id="Vrstva_2" xmlns="http://www.w3.org/2000/svg" viewBox="0 0 130.76 32.45">
  <defs>
    <style>
      .cls-1 {
        fill: none;
        stroke: #7d0696;
        stroke-miterlimit: 10;
        stroke-width: 3.98px;
      }

      .cls-2 {
        fill: #7d0696;
      }
    </style>
  </defs>
  <g id="Vrstva_1-2" data-name="Vrstva_1">
    <path class="cls-2" d="M68.94,3.4c2.25,2.26,3.37,5.51,3.37,9.73v16.37h-4.17v-8.04h-16.83v8.04h-4.08V13.12c0-4.22,1.12-7.46,3.37-9.73,2.25-2.26,5.29-3.4,9.12-3.4s6.96,1.13,9.21,3.4ZM68.15,17.83v-5.08c0-2.97-.74-5.22-2.23-6.75-1.49-1.53-3.55-2.29-6.19-2.29s-4.7.76-6.19,2.29c-1.49,1.53-2.23,3.78-2.23,6.75v5.08h16.83Z"/>
    <path class="cls-2" d="M98.73,29.49l-8.75-12.04-8.62,12.04h-4.79l10.96-14.96L77.23.33h4.75l8.16,11.21L98.23.33h4.54l-10.29,14.08,11.04,15.08h-4.79Z"/>
    <path class="cls-2" d="M125.97,29.49l-8.75-12.04-8.62,12.04h-4.79l10.96-14.96L104.48.33h4.75l8.17,11.21L125.47.33h4.54l-10.29,14.08,11.04,15.08h-4.79Z"/>
    <path class="cls-1" d="M1.99,28.9V12.12C1.99,6.71,6.16,2.33,11.29,2.33s9.3,4.38,9.3,9.79c0-5.41,4.16-9.79,9.3-9.79s9.3,4.38,9.3,9.79v16.78"/>
    <path class="cls-2" d="M14.47,32.04l-4.24.21c-2.13.11-4-1.41-4.33-3.52l-.26-1.64h-3.45v-5.32h2.67c-.06-2.28,1.45-4.35,3.71-4.96l3.47-.93c1.32-.35,2.65.35,2.83,1.5l1.93,12.27c.19,1.2-.9,2.32-2.33,2.39Z"/>
    <path class="cls-2" d="M38.71,21.74v5.32h-3.12l-.29,1.86c-.33,2.11-2.2,3.62-4.33,3.52l-4.24-.22c-1.42-.07-2.52-1.19-2.33-2.39l1.93-12.27c.18-1.14,1.51-1.85,2.83-1.49l3.48.93c2.18.58,3.67,2.54,3.71,4.74h2.36Z"/>
  </g>
</svg>